<?xml version="1.0" standalone="yes"?>
<svg xmlns="http://www.w3.org/2000/svg" width="435" height="435">
<path style="fill:#fefefe; stroke:none;" d="M0 0L0 435L435 435L435 0L0 0z"/>
<path style="fill:#13131a; stroke:none;" d="M203 2.42438C151.199 9.22583 105.632 25.097 67 62.0394C-29.7142 154.524 -17.0178 320.851 95 395.667C115.853 409.594 138.626 420.278 163 426.373C188.364 432.716 215.006 434.825 241 431.715C344.22 419.363 427.38 332.588 431.961 228C436.537 123.49 363.223 27.0485 260 6.39969C241.848 2.76862 221.484 -0.00256348 203 2.42438z"/>
<path style="fill:#fefefe; stroke:none;" d="M203 7.42438C160.816 12.9632 122.32 23.7846 88 50.4252C66.3745 67.2116 47.7477 88.2186 34.1505 112C-29.2661 222.915 21.673 370.463 143 414.947C176.797 427.338 212.454 430.506 248 425.718C277.033 421.807 305.347 410.691 330 395.047C351.226 381.577 370.014 364.119 385.105 344C452.431 254.24 435.27 125.98 350 54.4383C330.07 37.7168 306.61 25.5066 282 17.3333C257.717 9.26871 228.604 4.06253 203 7.42438z"/>
<path style="fill:#e79a3d; stroke:none;" d="M129 173L129 174L144 175L144 180L133 180L133 182L144 182L146 201L149 198C144.014 198 157.185 187.895 154 200C158.938 195.803 159 188.003 159 182L173 182L173 173L158.09 172.698L151.05 169.858L129 173z"/>
<path style="fill:#fefefe; stroke:none;" d="M150 171L153 173L150 171z"/>
<path style="fill:#bf4156; stroke:none;" d="M322 171L322 198L323 198L322 171z"/>
<path style="fill:#8794a9; stroke:none;" d="M68 225C62.6553 225.675 53.9693 227.716 49.6034 223.272C46.3536 219.965 48 211.269 48 207C48 194.188 42.6571 174.369 60 174L60 172C31.5137 172.591 20.4538 211.89 47 225.168C55.0171 229.178 67.5804 229.496 74.7716 223.351C79.5577 219.261 78.1003 210.459 71.0031 210.282C61.5536 210.045 64.2323 220.545 68 225M82 216L85 216L85 215L82 215L83 211L82 211L82 213L81 213C78.737 195.187 83.3562 172.469 107 174.097C112.967 174.508 117.59 177.964 123 180C112.288 190.709 104.497 191 90 191L90 188L89 188L88 189L88 190C91.5126 196.582 93.0232 215.654 83 217L88 222C87.8563 208.138 108.395 220.154 113.278 213.667C116.405 209.511 110.302 195.981 117 195C116.372 190.609 121.551 181.785 126.606 186.296C139.127 197.472 126.733 218.534 115 223.815C108.151 226.898 101.219 225.005 94 225L94 224L97 224L97 223L92 224C115.714 242.95 144.636 205.054 127.471 183.004C105.351 154.59 64.9078 185.931 82 216z"/>
<path style="fill:#e79a3d; stroke:none;" d="M178 172L178 228L211 228L211 226L206 226C205.918 219.068 203.636 218.023 197 218L197 208L179 208L179 197L185 197L185 196L180 196L179 174L202 174L202 172L178 172z"/>
<path style="fill:#13131a; stroke:none;" d="M215 172L215 227L216 227L216 199C223.006 199.534 222.995 203.952 223 210L224 210L224 199C236.466 199 262.012 204.486 265 188L264 188C258.916 202.914 236.49 198 224 198L224 192L229 192L229 191L224 191L224 173L259 175C250.372 167.497 226.096 172 215 172z"/>
<path style="fill:#8794a9; stroke:none;" d="M255.667 172.333L256.333 172.667L255.667 172.333M267 208L268 208L269 202C272.987 202.003 276.668 201.402 279 205L276 205L272 211L269 208L268 213L267 213C267.467 223.885 268.887 226.999 280 227L281 217C296.615 221.485 296.97 202.394 309 202L310 229L311 229L311 201L268 201L268 200C271.995 200 278.987 201.726 280 197L279 197C274.976 200.048 270.623 199.275 268 195C271.125 195.924 277.5 197.466 279.397 193.682C280.68 191.124 279.541 187.862 282.318 186.029C288.766 181.771 296.408 190.019 299 195L281 195L281 196C286.698 196 306.176 198.95 309.972 194.258C313.248 190.209 311 178.059 311 173L309 173L309 195C300.931 194.905 300.029 189.975 293.985 185.854C289.696 182.931 284.972 183.003 280 183L281 173C260.442 166.923 267 194.837 267 208z"/>
<path style="fill:#e79a3d; stroke:none;" d="M321 172L321 198L322 198L321 172M323 172L323 198L324 198L323 172M355.667 172.333L356.333 172.667L355.667 172.333z"/>
<path style="fill:#bf4156; stroke:none;" d="M338 215L339 215C334.601 202.952 333.817 190.679 344.043 181.185C350.931 174.792 369.66 168.868 376.364 179.39C378.349 182.506 374.202 185.952 372.088 187.766C365.882 193.094 354.625 191 347 191C347 201.796 348.628 210.609 341 219L344 220C350.103 211.618 360.682 214 370 214C370 199.282 371.576 193.961 380 182L381 182C384.146 187.679 387.819 193.225 387.819 200C387.819 222.739 364.592 228.579 347 223C368.815 244.083 400.643 206.809 384.362 184C363.636 154.962 320.973 184.752 338 215z"/>
<path style="fill:#e79a3d; stroke:none;" d="M366.667 172.333L367.333 172.667L366.667 172.333z"/>
<path style="fill:#8794a9; stroke:none;" d="M218 178L218 179L218 180C214.094 183.413 216 193.07 216 198L217 198C217 195.598 215.626 180.701 219.83 181.631C223.689 182.484 222 195.031 222 198L223 198L221 179C225.744 172.31 213.566 173.605 218 178M224 173L224 174L236 174L224 173z"/>
<path style="fill:#bf4156; stroke:none;" d="M236 173L236 192L237 192L238 173L236 173z"/>
<path style="fill:#8794a9; stroke:none;" d="M238 173L238 174L255 174L238 173M258 173L259 174L258 173z"/>
<path style="fill:#13131a; stroke:none;" d="M268 173L268 174L280 174L268 173z"/>
<path style="fill:#e79a3d; stroke:none;" d="M352 173L353 174L352 173M370 173L371 174L370 173z"/>
<path style="fill:#fefefe; stroke:none;" d="M79 204L80 204C81.5298 193.839 90.164 184.906 101 185.786C104.933 186.106 109.213 189.487 113 188.981C117.25 188.414 120.739 183.21 123 180C101.614 168.273 79.0725 177.746 79 204M179 174C179 180.583 176.3 191.322 185 192L185 174L179 174z"/>
<path style="fill:#8794a9; stroke:none;" d="M185 174L185 192L187 192L187 174L185 174z"/>
<path style="fill:#fefefe; stroke:none;" d="M217 177L220 174L217 177M224 174L224 190C234.75 189.873 236 183.285 236 174L224 174M238 174L238 192L236 192L236 188L232 198C239.422 198 250.225 199.977 256.996 196.543C265.125 192.421 266.783 179.877 257.957 175.318C252.482 172.49 243.994 174 238 174z"/>
<path style="fill:#8794a9; stroke:none;" d="M256.667 174.333L257.333 174.667L256.667 174.333M259 174L264 182C264.953 177.472 262.153 176.365 259 174z"/>
<path style="fill:#13131a; stroke:none;" d="M280 174L280 183L281 183L280 174z"/>
<path style="fill:#e79a3d; stroke:none;" d="M355.667 174.333L356.333 174.667L355.667 174.333z"/>
<path style="fill:#fefefe; stroke:none;" d="M336 202L337 202C338.717 192.518 348.119 184.717 358 185.84C361.744 186.265 366.318 189.841 370 188.698C373.816 187.514 376.821 183.093 379 180C359.071 169.072 336.07 176.695 336 202z"/>
<path style="fill:#e79a3d; stroke:none;" d="M366.667 174.333L367.333 174.667L366.667 174.333z"/>
<path style="fill:#fefefe; stroke:none;" d="M146 178L149 175L146 178z"/>
<path style="fill:#bf4156; stroke:none;" d="M150 175L150 180L151 180L150 175z"/>
<path style="fill:#fefefe; stroke:none;" d="M152 175L152 180L157 180L157 175L152 175M159 175L159 180L171 180L171 175L159 175z"/>
<path style="fill:#8794a9; stroke:none;" d="M219 175L218 177L219 175z"/>
<path style="fill:#13131a; stroke:none;" d="M220 175L221 176L220 175M260 175L261 176L260 175z"/>
<path style="fill:#fefefe; stroke:none;" d="M269 175L269 192L270 192C274.773 185.284 278.993 183.776 279 175L269 175z"/>
<path style="fill:#e79a3d; stroke:none;" d="M352 175L353 176L352 175M370 175L371 176L370 175M148 176L147 178L148 176z"/>
<path style="fill:#13131a; stroke:none;" d="M149 176L147 180C149.649 179.432 150.355 178.412 149 176M219 176L220 177L219 176M261 176L262 177L261 176z"/>
<path style="fill:#e79a3d; stroke:none;" d="M346 176L347 177L346 176M350 176L351 177L350 176z"/>
<path style="fill:#13131a; stroke:none;" d="M218 177L219 178L218 177z"/>
<path style="fill:#fefefe; stroke:none;" d="M221 177L222 178L221 177z"/>
<path style="fill:#e79a3d; stroke:none;" d="M348 177L349 178L348 177M374 177L375 178L374 177z"/>
<path style="fill:#13131a; stroke:none;" d="M43 178L44 179L43 178z"/>
<path style="fill:#fefefe; stroke:none;" d="M45.3333 178.667L45.6667 179.333L45.3333 178.667z"/>
<path style="fill:#e79a3d; stroke:none;" d="M376 178L377 179L376 178M379 178L380 179L379 178z"/>
<path style="fill:#bf4156; stroke:none;" d="M44 179L45 180L44 179M146 179L147 180L146 179z"/>
<path style="fill:#e79a3d; stroke:none;" d="M342 179L343 180L342 179M345 179L346 180L345 179M377 179L378 180L377 179M380 179L381 180L380 179z"/>
<path style="fill:#fefefe; stroke:none;" d="M40 182L40 183L42 186L38 184L40 193L35 189L38 200L33 197L36 207L34 206L34 207C36.5549 213.482 39.6581 218.701 46 222L39 211L46 218L41 204L45 209L46 209L40 193L45 199L46 199L42 186L46 189C45.9453 184.369 45.5447 179.826 40 182z"/>
<path style="fill:#13131a; stroke:none;" d="M218 180L218 181L221 181L218 180z"/>
<path style="fill:#e79a3d; stroke:none;" d="M341 180L342 181L341 180M344 180L345 181L344 180M381 180L382 181L381 180z"/>
<path style="fill:#fefefe; stroke:none;" d="M217 181L217 198L222 198L222 181L217 181z"/>
<path style="fill:#bf4156; stroke:none;" d="M264 181L265 182L264 181z"/>
<path style="fill:#e79a3d; stroke:none;" d="M340 181L341 182L340 181M378 181L379 182L378 181M382 181L383 182L382 181z"/>
<path style="fill:#13131a; stroke:none;" d="M39 182L40 183L39 182z"/>
<path style="fill:#fefefe; stroke:none;" d="M146 182L146 192L150 192L150 182L146 182M152 182L152 192L157 192L157 182L152 182z"/>
<path style="fill:#13131a; stroke:none;" d="M264 182L265 183L264 182z"/>
<path style="fill:#8794a9; stroke:none;" d="M265 182L265 190L266 190L265 182z"/>
<path style="fill:#e79a3d; stroke:none;" d="M377 182L378 183L377 182M380 182L381 183L380 182M383 182L384 183L383 182z"/>
<path style="fill:#fefefe; stroke:none;" d="M103 225C118.947 231.677 131.561 211.315 130.961 198C130.785 194.096 129.083 182.775 122.985 184.346C111.686 187.255 118.974 197.297 119.66 204C120.67 213.877 112.37 223.303 103 225z"/>
<path style="fill:#e79a3d; stroke:none;" d="M341 183L342 184L341 183M376 183L377 184L376 183z"/>
<path style="fill:#fefefe; stroke:none;" d="M359 225L359 226C383.916 225.794 392.597 203.225 382 183C367.707 187.012 375.351 195.327 375.892 205C376.441 214.835 368.311 223.315 359 225z"/>
<path style="fill:#e79a3d; stroke:none;" d="M340 184L341 185L340 184M375 184L376 185L375 184M382 184L383 185L382 184z"/>
<path style="fill:#bf4156; stroke:none;" d="M41 185L42 186L41 185z"/>
<path style="fill:#e79a3d; stroke:none;" d="M98 185L99 186L98 185z"/>
<path style="fill:#8794a9; stroke:none;" d="M99.6667 185.333L100.333 185.667L99.6667 185.333M235 185L224 190L224 191L229 191L224 198L232 198L235 185z"/>
<path style="fill:#fefefe; stroke:none;" d="M281 185L281 195L299 195C296.073 186.416 289.169 185.005 281 185z"/>
<path style="fill:#e79a3d; stroke:none;" d="M337 185L338 186L337 185z"/>
<path style="fill:#8794a9; stroke:none;" d="M342 218C340.343 213.368 337.686 209.122 338.2 204C339.732 188.737 355.544 185.646 367 191L368 190C350.224 172.821 322.941 206.465 342 218z"/>
<path style="fill:#e79a3d; stroke:none;" d="M374 185L375 186L374 185M385 185L386 186L385 185z"/>
<path style="fill:#bf4156; stroke:none;" d="M42 186L43 187L42 186z"/>
<path style="fill:#8794a9; stroke:none;" d="M93 186L93 187L106 187L106 186L93 186z"/>
<path style="fill:#bf4156; stroke:none;" d="M95 186L95 187L104 187L95 186z"/>
<path style="fill:#fefefe; stroke:none;" d="M270 195L279 195L279 186C274.281 187.609 271.609 190.281 270 195z"/>
<path style="fill:#13131a; stroke:none;" d="M280 186C279.969 194.719 276.489 197.02 268 195L280 197L280 200L268 200L268 201L311 201L311 195L281 196L280 186z"/>
<path style="fill:#e79a3d; stroke:none;" d="M373 186L374 187L373 186z"/>
<path style="fill:#13131a; stroke:none;" d="M35 187L36 188L35 187z"/>
<path style="fill:#8794a9; stroke:none;" d="M91 187L94 189L94 188L91 187z"/>
<path style="fill:#bf4156; stroke:none;" d="M92 187L92 188L95 188L92 187M104 187L104 188L111 190L111 189L104 187z"/>
<path style="fill:#8794a9; stroke:none;" d="M107.667 187.333L108.333 187.667L107.667 187.333z"/>
<path style="fill:#e79a3d; stroke:none;" d="M336 187L337 188L336 187z"/>
<path style="fill:#fefefe; stroke:none;" d="M342 217L343 217C348.989 209.918 347 199.803 347 191L366 191C349.943 176.973 331.33 201.325 342 217z"/>
<path style="fill:#e79a3d; stroke:none;" d="M372 187L373 188L372 187M384 187L385 188L384 187M386 187L387 188L386 187z"/>
<path style="fill:#13131a; stroke:none;" d="M36 188L37 189L36 188z"/>
<path style="fill:#bf4156; stroke:none;" d="M90.6667 188.333L91.3333 188.667L90.6667 188.333z"/>
<path style="fill:#fefefe; stroke:none;" d="M90 190L90 191L109 191C104.043 186.356 95.8525 187.53 90 190z"/>
<path style="fill:#8794a9; stroke:none;" d="M106 188L107 189L106 188M109 188L110 189L109 188z"/>
<path style="fill:#e79a3d; stroke:none;" d="M371 188L372 189L371 188z"/>
<path style="fill:#8794a9; stroke:none;" d="M36 189L40 192L40 191L36 189z"/>
<path style="fill:#bf4156; stroke:none;" d="M37 189L38 190L37 189M89 189L90 190L89 189z"/>
<path style="fill:#8794a9; stroke:none;" d="M108 189L109 190L108 189z"/>
<path style="fill:#e79a3d; stroke:none;" d="M335 189L336 190L335 189M370 189L371 190L370 189M385 189L386 190L385 189M387 189L388 190L387 189z"/>
<path style="fill:#bf4156; stroke:none;" d="M45 190L46 191L45 190z"/>
<path style="fill:#e79a3d; stroke:none;" d="M86 190L87 191L86 190z"/>
<path style="fill:#bf4156; stroke:none;" d="M81 213L82 213C81.1891 202.711 83.1386 198.455 89 190C80.2382 194.285 79.4081 204.425 81 213z"/>
<path style="fill:#e79a3d; stroke:none;" d="M109 190L110 191L109 190z"/>
<path style="fill:#bf4156; stroke:none;" d="M111 190L112 191L111 190z"/>
<path style="fill:#8794a9; stroke:none;" d="M263 190L264 191L263 190z"/>
<path style="fill:#e79a3d; stroke:none;" d="M369 190L370 191L369 190z"/>
<path style="fill:#8794a9; stroke:none;" d="M85 191L86 192L85 191z"/>
<path style="fill:#fefefe; stroke:none;" d="M85 217C93.066 212.932 90 198.789 90 191C79.9521 195.942 80.9498 208.321 85 217z"/>
<path style="fill:#e79a3d; stroke:none;" d="M187 191L188 192L187 191M237 191L238 192L237 191z"/>
<path style="fill:#8794a9; stroke:none;" d="M264 191L265 192L264 191z"/>
<path style="fill:#bf4156; stroke:none;" d="M39 192L40 193L39 192M180 192L180 193L194 194L194 195L180 195L180 196L195 196L195 192L180 192z"/>
<path style="fill:#fefefe; stroke:none;" d="M224 192L224 196L228 192L224 192z"/>
<path style="fill:#8794a9; stroke:none;" d="M262 192L263 193L262 192z"/>
<path style="fill:#e79a3d; stroke:none;" d="M334.333 192.667L334.667 193.333L334.333 192.667M336.333 192.667L336.667 193.333L336.333 192.667M369 213L369 193C364.203 193.171 353.754 189.197 349.167 192.5C347.071 194.009 348 198.753 348 201C348 215.978 356.278 213 369 213M386 192L387 193L386 192M388 192L389 193L388 192z"/>
<path style="fill:#bf4156; stroke:none;" d="M40 193L41 194L40 193z"/>
<path style="fill:#fefefe; stroke:none;" d="M92 193L92 211L110 193L92 193z"/>
<path style="fill:#bf4156; stroke:none;" d="M114 193L115 194L114 193z"/>
<path style="fill:#8794a9; stroke:none;" d="M149 193L147 199L148 199L149 193M152 193L147 201C150.087 199.223 153.331 196.662 152 193M154 193L155 194L154 193M180 193L180 195L194 195L180 193M261 193L262 194L261 193M263 193L264 194L263 193z"/>
<path style="fill:#fefefe; stroke:none;" d="M349 193L349 210L366 193L349 193z"/>
<path style="fill:#8794a9; stroke:none;" d="M371 193C373.176 205.25 375.222 223.884 356 223.642C351.488 223.585 347.348 220.929 343 220C359.34 237.746 388.251 210.218 371 193z"/>
<path style="fill:#13131a; stroke:none;" d="M33 194L35 196L33 194z"/>
<path style="fill:#8794a9; stroke:none;" d="M34 194L35 195L34 194M40 194L40 195L44 197L40 194M83 194L84 195L83 194z"/>
<path style="fill:#bf4156; stroke:none;" d="M115 194C120.064 211.757 113.968 223.998 94 224L94 225C99.4919 225 105.047 225.384 109.961 222.467C119.13 217.024 122.738 202.008 115 194z"/>
<path style="fill:#fefefe; stroke:none;" d="M148 198L153 194L148 198z"/>
<path style="fill:#8794a9; stroke:none;" d="M260 194L261 195L260 194z"/>
<path style="fill:#e79a3d; stroke:none;" d="M365 194L350 210C354.996 206.481 363.529 200.07 365 194z"/>
<path style="fill:#bf4156; stroke:none;" d="M366 194L367 195L366 194z"/>
<path style="fill:#8794a9; stroke:none;" d="M82 195L83 196L82 195M84 195L85 196L84 195z"/>
<path style="fill:#fefefe; stroke:none;" d="M111 195L94 213L112 213L111 195M114 195C114 199.639 116.087 211.033 111.682 213.972C104.309 218.892 92.9731 210.14 88 220C104.562 229.323 128.043 212.403 114 195z"/>
<path style="fill:#bf4156; stroke:none;" d="M149 200C153.009 200.39 154.362 198.91 155 195L149 200z"/>
<path style="fill:#8794a9; stroke:none;" d="M259 195L260 196L259 195z"/>
<path style="fill:#bf4156; stroke:none;" d="M365 195L366 196L365 195z"/>
<path style="fill:#e79a3d; stroke:none;" d="M370 195L370 214L348 214L348 215C353.676 215 363.546 216.924 368.682 214.397C373.025 212.26 371.548 198.689 370 195z"/>
<path style="fill:#bf4156; stroke:none;" d="M35 196L36 197L35 196M42 196L43 197L42 196z"/>
<path style="fill:#8794a9; stroke:none;" d="M83.3333 196.667L83.6667 197.333L83.3333 196.667M115 196L116 197L115 196M117 196L118 197L117 196M185 196L185 208L187 208L185 196z"/>
<path style="fill:#e79a3d; stroke:none;" d="M187 196L187 197L195 197L187 196z"/>
<path style="fill:#8794a9; stroke:none;" d="M257 196L258 197L257 196z"/>
<path style="fill:#bf4156; stroke:none;" d="M364 196L365 197L364 196z"/>
<path style="fill:#fefefe; stroke:none;" d="M371 196C371 200.495 372.97 211.111 368.682 213.972C361.117 219.02 349.089 209.909 344 220C349.918 222.778 355.483 224.992 362 222.751C372.415 219.169 378.228 205.089 371 196z"/>
<path style="fill:#e79a3d; stroke:none;" d="M387 196L387 204L388 204L387 196M389 196L389 204L390 204L389 196z"/>
<path style="fill:#8794a9; stroke:none;" d="M35 197L38 199L35 197z"/>
<path style="fill:#bf4156; stroke:none;" d="M43 197L44 198L43 197z"/>
<path style="fill:#8794a9; stroke:none;" d="M81.3333 197.667L81.6667 198.333L81.3333 197.667z"/>
<path style="fill:#fefefe; stroke:none;" d="M179 197L179 208L185 208L185 197L179 197z"/>
<path style="fill:#8794a9; stroke:none;" d="M255.667 197.333L256.333 197.667L255.667 197.333M259 197L260 198L259 197z"/>
<path style="fill:#fefefe; stroke:none;" d="M269 197L269 199L279 199L279 197L269 197M281 197L281 199L300 199L300 197L281 197z"/>
<path style="fill:#8794a9; stroke:none;" d="M300 197L281 199L281 200C284.424 200 301.784 201.732 300 197z"/>
<path style="fill:#bf4156; stroke:none;" d="M301 197C303.563 200.553 307.554 200.774 310 197L301 197z"/>
<path style="fill:#8794a9; stroke:none;" d="M302 197L302 198L309 198L302 197z"/>
<path style="fill:#e79a3d; stroke:none;" d="M335 197L335 203L336 203L335 197z"/>
<path style="fill:#bf4156; stroke:none;" d="M363 197L364 198L363 197z"/>
<path style="fill:#8794a9; stroke:none;" d="M116 198L117 199L116 198M118.333 198.667L118.667 199.333L118.333 198.667M257 198L258 199L257 198M318 198L317 206L318 206L319 200L325 199L318 198z"/>
<path style="fill:#bf4156; stroke:none;" d="M325 198L316.603 207.325L316 227L329 227L327 198L325 198z"/>
<path style="fill:#e79a3d; stroke:none;" d="M333 198L333 202L334 202L333 198z"/>
<path style="fill:#bf4156; stroke:none;" d="M362 198L363 199L362 198M37 199L38 200L37 199z"/>
<path style="fill:#8794a9; stroke:none;" d="M82 199L83 200L82 199M216 199L216 227L217 227L217 200L222 200L216 199M224 199L224 200L256 200L224 199z"/>
<path style="fill:#bf4156; stroke:none;" d="M361 199L362 200L361 199M38 200L39 201L38 200z"/>
<path style="fill:#8794a9; stroke:none;" d="M80.3333 200.667L80.6667 201.333L80.3333 200.667M117.333 200.667L117.667 201.333L117.333 200.667z"/>
<path style="fill:#e79a3d; stroke:none;" d="M149 200L150 201L149 200M152 200C147.381 206.595 150 220.114 150 228L152 228L152 200z"/>
<path style="fill:#8794a9; stroke:none;" d="M153 200L153 201L156 201L153 200M222 200L222 210L223 210L222 200z"/>
<path style="fill:#fefefe; stroke:none;" d="M319 200L319 204L323 200L319 200z"/>
<path style="fill:#e79a3d; stroke:none;" d="M323 200L324 201L323 200z"/>
<path style="fill:#bf4156; stroke:none;" d="M360 200L361 201L360 200z"/>
<path style="fill:#8794a9; stroke:none;" d="M38 201L41 203L38 201z"/>
<path style="fill:#e79a3d; stroke:none;" d="M322 201L323 202L322 201z"/>
<path style="fill:#bf4156; stroke:none;" d="M359 201L360 202L359 201z"/>
<path style="fill:#8794a9; stroke:none;" d="M81 202L81 209L82 209L81 202M119 202L119 209L120 209L119 202z"/>
<path style="fill:#fefefe; stroke:none;" d="M269 205L279 205C278.044 200.538 269.956 200.538 269 205M281 216C290.611 215.973 298.902 212.651 300 202C286.562 202 281 201.066 281 216z"/>
<path style="fill:#e79a3d; stroke:none;" d="M321 202L322 203L321 202M324 202L321 206L325 206L324 202z"/>
<path style="fill:#bf4156; stroke:none;" d="M358 202L359 203L358 202M33 203L34 204L33 203M40 203L41 204L40 203z"/>
<path style="fill:#8794a9; stroke:none;" d="M272 203L272 204L276 204L272 203z"/>
<path style="fill:#e79a3d; stroke:none;" d="M320 203L321 204L320 203z"/>
<path style="fill:#bf4156; stroke:none;" d="M357 203L358 204L357 203M41 204L42 205L41 204z"/>
<path style="fill:#8794a9; stroke:none;" d="M270 204L271 205L270 204z"/>
<path style="fill:#13131a; stroke:none;" d="M268 209L269 209L277 205C272.815 203.297 269.36 204.693 268 209z"/>
<path style="fill:#bf4156; stroke:none;" d="M356 204L357 205L356 204z"/>
<path style="fill:#8794a9; stroke:none;" d="M41 205L45 208L41 205z"/>
<path style="fill:#bf4156; stroke:none;" d="M271 205L272 206L271 205z"/>
<path style="fill:#8794a9; stroke:none;" d="M272 205L273 206L272 205z"/>
<path style="fill:#fefefe; stroke:none;" d="M270 207L272 211L277 206L270 207z"/>
<path style="fill:#e79a3d; stroke:none;" d="M327 205L328 206L327 205z"/>
<path style="fill:#bf4156; stroke:none;" d="M355 205L356 206L355 205M35 206L36 207L35 206z"/>
<path style="fill:#8794a9; stroke:none;" d="M270 206L271 207L270 206z"/>
<path style="fill:#13131a; stroke:none;" d="M280.333 206.667L280.667 207.333L280.333 206.667z"/>
<path style="fill:#e79a3d; stroke:none;" d="M315 206L315 227L316 227L315 206M334.333 206.667L334.667 207.333L334.333 206.667z"/>
<path style="fill:#bf4156; stroke:none;" d="M354 206L355 207L354 206M36 207L37 208L36 207M279 207L280 211L281 211L279 207M353 207L354 208L353 207z"/>
<path style="fill:#e79a3d; stroke:none;" d="M386 207L387 208L386 207M388 207L389 208L388 207z"/>
<path style="fill:#8794a9; stroke:none;" d="M36 208L39 210L36 208z"/>
<path style="fill:#bf4156; stroke:none;" d="M44 208L46 210L44 208M267 208L267 211L269 210L269 209L267 208z"/>
<path style="fill:#fefefe; stroke:none;" d="M274 213L278 214L279 208L274 213z"/>
<path style="fill:#8794a9; stroke:none;" d="M279 208L279 212L280 212L279 208z"/>
<path style="fill:#e79a3d; stroke:none;" d="M319 208L318 210L319 208z"/>
<path style="fill:#fefefe; stroke:none;" d="M320 208C318.107 211.568 317.289 214.592 321 217L320 208z"/>
<path style="fill:#e79a3d; stroke:none;" d="M321 208L321 217L322 217L321 208M324 208L325 209L324 208z"/>
<path style="fill:#bf4156; stroke:none;" d="M352 208L353 209L352 208z"/>
<path style="fill:#8794a9; stroke:none;" d="M44 209L45 210L44 209M117.333 209.667L117.667 210.333L117.333 209.667z"/>
<path style="fill:#fefefe; stroke:none;" d="M269 209L271 213L269 209z"/>
<path style="fill:#8794a9; stroke:none;" d="M324 209L324 217C326.784 214.242 327.443 211.445 324 209z"/>
<path style="fill:#bf4156; stroke:none;" d="M351 209L352 210L351 209M38 210L39 211L38 210z"/>
<path style="fill:#fefefe; stroke:none;" d="M180 210L180 212L182 210L180 210z"/>
<path style="fill:#8794a9; stroke:none;" d="M223 210L224 211L223 210M268 210L267 212L269 212L268 210z"/>
<path style="fill:#e79a3d; stroke:none;" d="M326 210L327 211L326 210z"/>
<path style="fill:#bf4156; stroke:none;" d="M350 210L351 211L350 210z"/>
<path style="fill:#e79a3d; stroke:none;" d="M385 210L386 211L385 210M387 210L388 211L387 210z"/>
<path style="fill:#bf4156; stroke:none;" d="M39 211L40 212L39 211z"/>
<path style="fill:#8794a9; stroke:none;" d="M118.333 211.667L118.667 212.333L118.333 211.667z"/>
<path style="fill:#fefefe; stroke:none;" d="M180 223L192 212C182.821 209.313 180.024 214.702 180 223z"/>
<path style="fill:#13131a; stroke:none;" d="M280 211C276.735 214.808 273.965 215.88 269 216L269 217C273.108 216.997 282.142 217.399 280 211z"/>
<path style="fill:#e79a3d; stroke:none;" d="M317 211L317 214L318 214L317 211z"/>
<path style="fill:#8794a9; stroke:none;" d="M39 212L43 215L39 212z"/>
<path style="fill:#fefefe; stroke:none;" d="M66 220L74 213C68.1276 211.449 66.1822 214.407 66 220z"/>
<path style="fill:#e79a3d; stroke:none;" d="M116 212L117 213L116 212z"/>
<path style="fill:#fefefe; stroke:none;" d="M195 212L196 213L195 212z"/>
<path style="fill:#bf4156; stroke:none;" d="M267 212L269 214L269 212L267 212z"/>
<path style="fill:#e79a3d; stroke:none;" d="M336 212L337 213L336 212M384 212L385 213L384 212M386 212L387 213L386 212z"/>
<path style="fill:#bf4156; stroke:none;" d="M82.3333 213.667L82.6667 214.333L82.3333 213.667z"/>
<path style="fill:#8794a9; stroke:none;" d="M116 213L117 214L116 213M193 213L182 225C190.471 227.503 199.107 221.939 193 213z"/>
<path style="fill:#fefefe; stroke:none;" d="M271 214L271 215L275 215L271 214z"/>
<path style="fill:#8794a9; stroke:none;" d="M278 213L279 214L278 213z"/>
<path style="fill:#e79a3d; stroke:none;" d="M346 213L347 214L346 213M115 214L116 215L115 214z"/>
<path style="fill:#8794a9; stroke:none;" d="M117 214L118 215L117 214z"/>
<path style="fill:#13131a; stroke:none;" d="M268 214L269 215L268 214z"/>
<path style="fill:#e79a3d; stroke:none;" d="M337 214L338 215L337 214M345 214L346 215L345 214M385 214L386 215L385 214z"/>
<path style="fill:#bf4156; stroke:none;" d="M42 215L43 216L42 215M83 215L85 218L83 215z"/>
<path style="fill:#8794a9; stroke:none;" d="M115 215L116 216L115 215z"/>
<path style="fill:#bf4156; stroke:none;" d="M271 215L272 216L271 215z"/>
<path style="fill:#e79a3d; stroke:none;" d="M338 215L339 216L338 215M344 215L345 216L344 215M382 215L383 216L382 215z"/>
<path style="fill:#8794a9; stroke:none;" d="M114 216L115 217L114 216M116 216L117 217L116 216z"/>
<path style="fill:#e79a3d; stroke:none;" d="M343 216L344 217L343 216z"/>
<path style="fill:#8794a9; stroke:none;" d="M113 217L114 218L113 217M115 217L116 218L115 217z"/>
<path style="fill:#13131a; stroke:none;" d="M278.667 217.333L279.333 217.667L278.667 217.333z"/>
<path style="fill:#e79a3d; stroke:none;" d="M342 217L343 218L342 217M383 217L384 218L383 217M112 218L113 219L112 218z"/>
<path style="fill:#8794a9; stroke:none;" d="M114 218L115 219L114 218z"/>
<path style="fill:#13131a; stroke:none;" d="M267 218L267 228L281 228L281 218L280 218L280 227C270.923 226.994 270.249 225.643 267 218z"/>
<path style="fill:#fefefe; stroke:none;" d="M269 218L269 225L277 218L269 218z"/>
<path style="fill:#e79a3d; stroke:none;" d="M317 218C317.071 224.011 321.364 228.168 322 220L321 220L321 225L318 225L319 218L317 218z"/>
<path style="fill:#fefefe; stroke:none;" d="M326 218L324 225L327 225L326 218z"/>
<path style="fill:#e79a3d; stroke:none;" d="M327 218L327 225L328 225L327 218M382 218L383 219L382 218z"/>
<path style="fill:#bf4156; stroke:none;" d="M45 219L46 220L45 219z"/>
<path style="fill:#8794a9; stroke:none;" d="M111 219L112 220L111 219z"/>
<path style="fill:#e79a3d; stroke:none;" d="M278 219L272 226L279 226L278 219z"/>
<path style="fill:#fefefe; stroke:none;" d="M318 219L318 225L321 225L321 219L318 219z"/>
<path style="fill:#e79a3d; stroke:none;" d="M323 219L323 225L324 225L323 219M341 219L342 220L341 219M381 219L382 220L381 219z"/>
<path style="fill:#bf4156; stroke:none;" d="M87 220L87 221L94 224L94 223L87 220z"/>
<path style="fill:#8794a9; stroke:none;" d="M110 220L111 221L110 220z"/>
<path style="fill:#fefefe; stroke:none;" d="M197 220L197 224L202 220L197 220z"/>
<path style="fill:#e79a3d; stroke:none;" d="M342 220L343 221L342 220M377 220L378 221L377 220M380 220L381 221L380 220z"/>
<path style="fill:#8794a9; stroke:none;" d="M90 221L91 222L90 221M109 221L110 222L109 221M111 221L112 222L111 221z"/>
<path style="fill:#e79a3d; stroke:none;" d="M376 221L377 222L376 221M379 221L380 222L379 221z"/>
<path style="fill:#8794a9; stroke:none;" d="M89 222L90 223L89 222M92 222L93 223L92 222M106.667 222.333L107.333 222.667L106.667 222.333M110 222L111 223L110 222M199 226L204 226L204 222L199 226z"/>
<path style="fill:#e79a3d; stroke:none;" d="M374 222L375 223L374 222z"/>
<path style="fill:#8794a9; stroke:none;" d="M90 223L91 224L90 223M103.667 223.333L104.333 223.667L103.667 223.333M108 223L109 224L108 223z"/>
<path style="fill:#13131a; stroke:none;" d="M272 223L271 225L272 223z"/>
<path style="fill:#e79a3d; stroke:none;" d="M346 223L347 224L346 223M376 223L377 224L376 223z"/>
<path style="fill:#8794a9; stroke:none;" d="M105.667 224.333L106.333 224.667L105.667 224.333M272 224L273 225L272 224z"/>
<path style="fill:#e79a3d; stroke:none;" d="M370 224L371 225L370 224z"/>
<path style="fill:#fefefe; stroke:none;" d="M194 225L195 226L194 225z"/>
<path style="fill:#13131a; stroke:none;" d="M270 225L271 226L270 225z"/>
<path style="fill:#e79a3d; stroke:none;" d="M324 225L324 226L327 226L324 225M366.667 225.333L367.333 225.667L366.667 225.333M352 226L353 227L352 226M370 226L371 227L370 226z"/>
<path style="fill:#8794a9; stroke:none;" d="M215 227L216 228L215 227z"/>
<path style="fill:#e79a3d; stroke:none;" d="M316 227L316 228L328 228L316 227M355.667 227.333L356.333 227.667L355.667 227.333M366.667 227.333L367.333 227.667L366.667 227.333z"/>
<path style="fill:#8794a9; stroke:none;" d="M267 228L267 229L281 229L267 228z"/>
<path style="fill:#13131a; stroke:none;" d="M258 231L258 232C262.286 236.197 262.62 247.221 259 252L259 253L268 253L268 252C264.122 246.881 266 237.237 266 231L258 231z"/>
<path style="fill:#8794a9; stroke:none;" d="M266 231L266 251L267 251L266 231M281 231L280 233L281 231z"/>
<path style="fill:#13131a; stroke:none;" d="M282.313 232.341C280.173 233.228 281.548 236.545 283.687 235.659C285.827 234.772 284.452 231.455 282.313 232.341z"/>
<path style="fill:#8794a9; stroke:none;" d="M284 231L285 232L284 231M285 232L286 233L285 232M218 233L219 234L218 233z"/>
<path style="fill:#13131a; stroke:none;" d="M219 233L212 239C215.654 245.57 212.237 252.464 222 253L222 252C219.248 248.367 218.924 242.643 223 240L223 239L220 239L219 233z"/>
<path style="fill:#8794a9; stroke:none;" d="M260 233L260 251L261 251L260 233z"/>
<path style="fill:#bf4156; stroke:none;" d="M56 234L57 235L56 234z"/>
<path style="fill:#13131a; stroke:none;" d="M57 234L63 254L66 254L73 234C67.9047 237.106 66.7736 245.549 65 251L57 234z"/>
<path style="fill:#bf4156; stroke:none;" d="M70 234L71 235L70 234z"/>
<path style="fill:#13131a; stroke:none;" d="M75 234L75 236L77 236L77 234L75 234z"/>
<path style="fill:#8794a9; stroke:none;" d="M77.3333 234.667L77.6667 235.333L77.3333 234.667z"/>
<path style="fill:#13131a; stroke:none;" d="M95 234L95 236L97 236L97 234L95 234z"/>
<path style="fill:#8794a9; stroke:none;" d="M97.3333 234.667L97.6667 235.333L97.3333 234.667z"/>
<path style="fill:#bf4156; stroke:none;" d="M103 234L104 235L103 234M117 234L117 249L118 249L117 234z"/>
<path style="fill:#13131a; stroke:none;" d="M118 234C118 238.714 116.492 246.624 119.028 250.772C121.822 255.342 128.461 254.249 130.821 249.941C133.202 245.595 132 238.801 132 234L130 234C130 237.772 128.876 260.142 120.858 248.851C117.756 244.483 119.962 238.676 118 234z"/>
<path style="fill:#8794a9; stroke:none;" d="M119 234L119 247L120 247L119 234z"/>
<path style="fill:#e79a3d; stroke:none;" d="M129 234L129 247L130 247L129 234M56 235L57 236L56 235z"/>
<path style="fill:#8794a9; stroke:none;" d="M59.3333 235.667L59.6667 236.333L59.3333 235.667M72 235L73 236L72 235z"/>
<path style="fill:#e79a3d; stroke:none;" d="M101 235L101 239L102 239L101 235z"/>
<path style="fill:#13131a; stroke:none;" d="M102 235L100 239L100 240L100 241L106 254C104.274 249.496 102.867 245.136 106 241L106 240L106 239L104 235L102 235z"/>
<path style="fill:#8794a9; stroke:none;" d="M280 235L281 236L280 235M285 235L286 236L285 235z"/>
<path style="fill:#e79a3d; stroke:none;" d="M69 236L70 237L69 236z"/>
<path style="fill:#13131a; stroke:none;" d="M170 252C161.138 254.03 151.279 243.577 162.044 238.194C168.811 234.811 174.13 242.952 169 248C175.082 248.144 172.836 239.291 168.941 237.18C149.443 226.614 157.734 266.034 170 252z"/>
<path style="fill:#8794a9; stroke:none;" d="M168 236L169 237L168 236M281 236L282 237L281 236M284 236L285 237L284 236z"/>
<path style="fill:#bf4156; stroke:none;" d="M57 237L58 238L57 237M69 237L70 238L69 237z"/>
<path style="fill:#8794a9; stroke:none;" d="M71.3333 237.667L71.6667 238.333L71.3333 237.667M162 237L163 238L162 237M170 237L171 238L170 237z"/>
<path style="fill:#e79a3d; stroke:none;" d="M57 238L58 239L57 238z"/>
<path style="fill:#8794a9; stroke:none;" d="M60.3333 238.667L60.6667 239.333L60.3333 238.667z"/>
<path style="fill:#e79a3d; stroke:none;" d="M158 238L159 239L158 238z"/>
<path style="fill:#8794a9; stroke:none;" d="M160 238L161 239L160 238z"/>
<path style="fill:#e79a3d; stroke:none;" d="M169 238L170 239L169 238z"/>
<path style="fill:#8794a9; stroke:none;" d="M171 238L172 239L171 238M213 238L214 239L213 238z"/>
<path style="fill:#e79a3d; stroke:none;" d="M68 239L69 240L68 239z"/>
<path style="fill:#13131a; stroke:none;" d="M75 239L75 254L77 254L77 239L75 239z"/>
<path style="fill:#8794a9; stroke:none;" d="M77 239L77 254L78 254L77 239z"/>
<path style="fill:#13131a; stroke:none;" d="M90 249L90 251L81 249C82.3403 253.243 91.0667 256.511 91.2485 249.935C91.3583 245.959 84.7966 244.293 83 241L91 243C87.7442 237.428 78.3107 240.299 82.6227 245.491C84.3287 247.545 87.585 248.205 90 249z"/>
<path style="fill:#8794a9; stroke:none;" d="M88 239L89 240L88 239z"/>
<path style="fill:#13131a; stroke:none;" d="M95 239L95 254L97 254L97 239L95 239z"/>
<path style="fill:#8794a9; stroke:none;" d="M97 239L97 254L98 254L97 239z"/>
<path style="fill:#e79a3d; stroke:none;" d="M99.3333 239.667L99.6667 240.333L99.3333 239.667z"/>
<path style="fill:#8794a9; stroke:none;" d="M106.333 239.667L106.667 240.333L106.333 239.667z"/>
<path style="fill:#13131a; stroke:none;" d="M145 249L145 251L136 249C137.34 253.243 146.067 256.511 146.248 249.935C146.358 245.959 139.797 244.293 138 241L146 243C142.744 237.428 133.311 240.299 137.623 245.491C139.329 247.545 142.585 248.205 145 249z"/>
<path style="fill:#8794a9; stroke:none;" d="M143 239L144 240L143 239z"/>
<path style="fill:#e79a3d; stroke:none;" d="M157 239L158 240L157 239z"/>
<path style="fill:#8794a9; stroke:none;" d="M159 239L160 240L159 239z"/>
<path style="fill:#e79a3d; stroke:none;" d="M170 239L171 240L170 239z"/>
<path style="fill:#8794a9; stroke:none;" d="M172 239L173 240L172 239M184 239L185 240L184 239z"/>
<path style="fill:#13131a; stroke:none;" d="M190 253L190 252C184.469 249.02 184.469 242.98 190 240L189 245C197.673 246.459 192.525 237.992 186.005 239.474C175.098 241.952 181.989 252.561 190 253z"/>
<path style="fill:#8794a9; stroke:none;" d="M190.667 239.333L191.333 239.667L190.667 239.333M200 239L201 240L200 239z"/>
<path style="fill:#13131a; stroke:none;" d="M201.044 239.668C191.939 242.425 197.185 254.988 205.956 252.332C215.061 249.575 209.815 237.012 201.044 239.668z"/>
<path style="fill:#8794a9; stroke:none;" d="M206 239L207 240L206 239M229 239L230 240L229 239z"/>
<path style="fill:#13131a; stroke:none;" d="M235 253L235 252L230 245L240 245C231.754 229.975 216.016 252.012 235 253z"/>
<path style="fill:#8794a9; stroke:none;" d="M235 239L236 240L235 239M239 239L240 240L239 239z"/>
<path style="fill:#13131a; stroke:none;" d="M240 239L240 240C243.286 244.337 243.286 254.663 240 259L240 260L251 260L251 259L248 259L248 239L240 239z"/>
<path style="fill:#bf4156; stroke:none;" d="M249 239L250 240L249 239z"/>
<path style="fill:#13131a; stroke:none;" d="M250 239C252.035 243.803 252.987 248.096 249 252C258.374 255.627 260.836 240.236 250 239z"/>
<path style="fill:#8794a9; stroke:none;" d="M254 239L255 240L254 239z"/>
<path style="fill:#bf4156; stroke:none;" d="M268 239L269 240L268 239z"/>
<path style="fill:#13131a; stroke:none;" d="M269 239L269 253L278 253C274.633 246.946 277.773 239.989 269 239z"/>
<path style="fill:#8794a9; stroke:none;" d="M273 239L274 240L273 239z"/>
<path style="fill:#13131a; stroke:none;" d="M278 239L278 240C280.891 243.817 280.063 248.535 279 253L288 253L288 252L286 239L278 239z"/>
<path style="fill:#8794a9; stroke:none;" d="M293 239L294 240L293 239z"/>
<path style="fill:#13131a; stroke:none;" d="M294.044 239.668C284.939 242.425 290.185 254.988 298.956 252.332C308.061 249.575 302.815 237.012 294.044 239.668z"/>
<path style="fill:#8794a9; stroke:none;" d="M299 239L300 240L299 239M318.667 239.333L319.333 239.667L318.667 239.333z"/>
<path style="fill:#13131a; stroke:none;" d="M325 253L325 252C319.657 249.305 318.441 243.247 324 240C324.105 241.346 325.342 247.792 327.933 244.381C331.03 240.305 322.229 239 320.015 239.588C308.519 242.641 317.127 252.634 325 253z"/>
<path style="fill:#8794a9; stroke:none;" d="M325 239L326 240L325 239M334.667 239.333L335.333 239.667L334.667 239.333z"/>
<path style="fill:#13131a; stroke:none;" d="M336.015 239.613C326.469 241.941 331.058 254.565 339.985 252.387C349.531 250.059 344.942 237.435 336.015 239.613z"/>
<path style="fill:#8794a9; stroke:none;" d="M340.667 239.333L341.333 239.667L340.667 239.333M346 239L347 240L346 239z"/>
<path style="fill:#13131a; stroke:none;" d="M347 239L347 240C349.701 243.565 349.701 248.435 347 252L347 253L356 253C354.229 245.56 356.597 239.114 347 239z"/>
<path style="fill:#8794a9; stroke:none;" d="M354 239L356 241L354 239z"/>
<path style="fill:#bf4156; stroke:none;" d="M356 239L357 240L356 239z"/>
<path style="fill:#13131a; stroke:none;" d="M357 239L357 253L365 253C363.444 246.465 365.36 239.942 357 239z"/>
<path style="fill:#8794a9; stroke:none;" d="M361 239L362 240L361 239z"/>
<path style="fill:#bf4156; stroke:none;" d="M365 239L366 240L365 239z"/>
<path style="fill:#13131a; stroke:none;" d="M366 239L366 253L375 253C371.633 246.946 374.773 239.989 366 239z"/>
<path style="fill:#8794a9; stroke:none;" d="M370 239L371 240L370 239z"/>
<path style="fill:#e79a3d; stroke:none;" d="M58 240L59 241L58 240z"/>
<path style="fill:#bf4156; stroke:none;" d="M68 240L69 241L68 240z"/>
<path style="fill:#8794a9; stroke:none;" d="M70.3333 240.667L70.6667 241.333L70.3333 240.667z"/>
<path style="fill:#e79a3d; stroke:none;" d="M81 240L82 241L81 240M136 240L137 241L136 240z"/>
<path style="fill:#8794a9; stroke:none;" d="M158 240L159 241L158 240z"/>
<path style="fill:#bf4156; stroke:none;" d="M166 240L167 241L166 240z"/>
<path style="fill:#13131a; stroke:none;" d="M164 250L165 242L166 242C165.598 245.493 164.883 247.92 168 250L169 240C164.565 240.912 155.815 247.675 164 250z"/>
<path style="fill:#8794a9; stroke:none;" d="M169 240L170 241L169 240z"/>
<path style="fill:#fefefe; stroke:none;" d="M170 240L168 248C171.446 245.98 172.21 243.403 170 240z"/>
<path style="fill:#bf4156; stroke:none;" d="M171 240L172 241L171 240z"/>
<path style="fill:#8794a9; stroke:none;" d="M182 240L183 241L182 240z"/>
<path style="fill:#bf4156; stroke:none;" d="M189 240L190 241L189 240z"/>
<path style="fill:#8794a9; stroke:none;" d="M198 240L199 241L198 240M202 240L203 241L202 240z"/>
<path style="fill:#fefefe; stroke:none;" d="M203 240L203 252L204 252C205.228 247.845 205.703 243.568 203 240z"/>
<path style="fill:#8794a9; stroke:none;" d="M204 240L205 241L204 240M208 240L209 241L208 240M227 240L228 241L227 240z"/>
<path style="fill:#fefefe; stroke:none;" d="M231 240L234 244L233 240L231 240z"/>
<path style="fill:#8794a9; stroke:none;" d="M233 240L234 241L233 240M237 240L238 241L237 240M241 240L242 241L241 240M248 240L249 241L248 240z"/>
<path style="fill:#fefefe; stroke:none;" d="M249 240L249 252L251 252L251 240L249 240M268 240L267 252L270 252L268 240z"/>
<path style="fill:#8794a9; stroke:none;" d="M269 240L270 241L269 240M291 240L292 241L291 240M295 240L296 241L295 240z"/>
<path style="fill:#fefefe; stroke:none;" d="M296 240L296 252L297 252C298.228 247.845 298.703 243.568 296 240z"/>
<path style="fill:#8794a9; stroke:none;" d="M297 240L298 241L297 240M301 240L302 241L301 240M321 240L322 241L321 240M327 240L328 241L327 240z"/>
<path style="fill:#fefefe; stroke:none;" d="M337 240L337 252L339 252L339 240L337 240z"/>
<path style="fill:#8794a9; stroke:none;" d="M343 240L344 241L343 240M348 240L348 252L349 252L348 240z"/>
<path style="fill:#bf4156; stroke:none;" d="M354 240L355 241L354 240z"/>
<path style="fill:#fefefe; stroke:none;" d="M356 240L355 252C359.076 249.357 358.752 243.633 356 240z"/>
<path style="fill:#8794a9; stroke:none;" d="M357 240L358 241L357 240M364 240L365 241L364 240z"/>
<path style="fill:#fefefe; stroke:none;" d="M365 240L364 252L367 252L365 240z"/>
<path style="fill:#8794a9; stroke:none;" d="M366 240L367 241L366 240M61.3333 241.667L61.6667 242.333L61.3333 241.667M83 241L84 242L83 241z"/>
<path style="fill:#e79a3d; stroke:none;" d="M101 241L101 252L102 252L101 241z"/>
<path style="fill:#8794a9; stroke:none;" d="M138 241L139 242L138 241z"/>
<path style="fill:#bf4156; stroke:none;" d="M156 241L157 242L156 241z"/>
<path style="fill:#e79a3d; stroke:none;" d="M171 241L172 242L171 241z"/>
<path style="fill:#8794a9; stroke:none;" d="M173 241L173 246L174 246L173 241M181 241L182 242L181 241M186 241L187 242L186 241M189 241L190 242L189 241M194 241L195 242L194 241z"/>
<path style="fill:#bf4156; stroke:none;" d="M205 241L206 242L205 241M226 241L227 242L226 241M230 241L231 242L230 241z"/>
<path style="fill:#8794a9; stroke:none;" d="M238 241L239 242L238 241M251 241L252 242L251 241z"/>
<path style="fill:#bf4156; stroke:none;" d="M256 241L257 242L256 241M298 241L299 242L298 241z"/>
<path style="fill:#8794a9; stroke:none;" d="M331 241L332 242L331 241M336 241L337 242L336 241M344 241L345 242L344 241z"/>
<path style="fill:#bf4156; stroke:none;" d="M59 242L60 243L59 242z"/>
<path style="fill:#e79a3d; stroke:none;" d="M67 242L68 243L67 242M80 242L80 245L81 245L80 242M88 242L89 243L88 242M135 242L135 245L136 245L135 242M143 242L144 243L143 242z"/>
<path style="fill:#8794a9; stroke:none;" d="M157 242L157 248L158 248L157 242z"/>
<path style="fill:#e79a3d; stroke:none;" d="M165.333 242.667L165.667 243.333L165.333 242.667z"/>
<path style="fill:#8794a9; stroke:none;" d="M180 242L181 243L180 242M196 242L197 243L196 242M201 242L201 250L202 250L201 242M205 242L205 250L206 250L205 242M210 242L211 243L210 242M225 242L226 243L225 242M230.333 242.667L230.667 243.333L230.333 242.667M239.333 242.667L239.667 243.333L239.333 242.667M257.333 242.667L257.667 243.333L257.333 242.667M289 242L290 243L289 242M294 242L294 250L295 250L294 242M298 242L298 250L299 250L298 242M303 242L304 243L303 242M320 242L321 243L320 242M323 242L323 245L324 245L323 242M329 242L329 245L331 244L331 243L329 242z"/>
<path style="fill:#e79a3d; stroke:none;" d="M59 243L60 244L59 243z"/>
<path style="fill:#bf4156; stroke:none;" d="M67 243L68 244L67 243z"/>
<path style="fill:#8794a9; stroke:none;" d="M69 243L70 244L69 243z"/>
<path style="fill:#e79a3d; stroke:none;" d="M155 243L155 247L156 247L155 243z"/>
<path style="fill:#bf4156; stroke:none;" d="M161 243L162 244L161 243z"/>
<path style="fill:#8794a9; stroke:none;" d="M164 243L165 244L164 243M168 243L168 246L169 246L168 243M314 243L315 244L314 243z"/>
<path style="fill:#bf4156; stroke:none;" d="M345 243L346 244L345 243z"/>
<path style="fill:#8794a9; stroke:none;" d="M62.3333 244.667L62.6667 245.333L62.3333 244.667M84 244L85 245L84 244M139 244L140 245L139 244z"/>
<path style="fill:#e79a3d; stroke:none;" d="M160 244L161 245L160 244z"/>
<path style="fill:#fefefe; stroke:none;" d="M164 244L164 247L165 247L164 244z"/>
<path style="fill:#bf4156; stroke:none;" d="M165.333 244.667L165.667 245.333L165.333 244.667z"/>
<path style="fill:#8794a9; stroke:none;" d="M179 244L179 248L180 248L179 244M185 244L185 248L186 248L185 244M195 244L195 248L196 248L195 244M211 244L211 248L212 248L211 244M224 244L224 248L225 248L224 244M288 244L288 248L289 248L288 244M304 244L304 248L305 248L304 244z"/>
<path style="fill:#bf4156; stroke:none;" d="M60 245L61 246L60 245z"/>
<path style="fill:#e79a3d; stroke:none;" d="M66 245L67 246L66 245z"/>
<path style="fill:#bf4156; stroke:none;" d="M81 245L82 246L81 245M136 245L137 246L136 245M160.333 245.667L160.667 246.333L160.333 245.667z"/>
<path style="fill:#e79a3d; stroke:none;" d="M171 245L172 246L171 245z"/>
<path style="fill:#8794a9; stroke:none;" d="M190 245L191 246L190 245M230 245L230 248L231 248L230 245M324 245L325 246L324 245M328 245L329 246L328 245z"/>
<path style="fill:#e79a3d; stroke:none;" d="M60 246L61 247L60 246z"/>
<path style="fill:#bf4156; stroke:none;" d="M66 246L67 247L66 246z"/>
<path style="fill:#8794a9; stroke:none;" d="M68 246L69 247L68 246z"/>
<path style="fill:#e79a3d; stroke:none;" d="M82 246L83 247L82 246z"/>
<path style="fill:#8794a9; stroke:none;" d="M90 246L91 247L90 246z"/>
<path style="fill:#e79a3d; stroke:none;" d="M137 246L138 247L137 246z"/>
<path style="fill:#8794a9; stroke:none;" d="M145 246L146 247L145 246M163 246L164 250L165 250L163 246z"/>
<path style="fill:#bf4156; stroke:none;" d="M171 246L172 247L171 246z"/>
<path style="fill:#8794a9; stroke:none;" d="M63.3333 247.667L63.6667 248.333L63.3333 247.667z"/>
<path style="fill:#e79a3d; stroke:none;" d="M85 247L86 248L85 247z"/>
<path style="fill:#8794a9; stroke:none;" d="M91 247L92 248L91 247z"/>
<path style="fill:#bf4156; stroke:none;" d="M129.333 247.667L129.667 248.333L129.333 247.667z"/>
<path style="fill:#e79a3d; stroke:none;" d="M140 247L141 248L140 247z"/>
<path style="fill:#8794a9; stroke:none;" d="M146 247L147 248L146 247z"/>
<path style="fill:#e79a3d; stroke:none;" d="M164 247L165 248L164 247z"/>
<path style="fill:#bf4156; stroke:none;" d="M170 247L171 248L170 247z"/>
<path style="fill:#8794a9; stroke:none;" d="M172 247L173 248L172 247M307 247L308 248L307 247z"/>
<path style="fill:#13131a; stroke:none;" d="M308.564 248.171C306.573 249.471 308.241 253.261 310.436 251.829C312.427 250.529 310.759 246.739 308.564 248.171z"/>
<path style="fill:#8794a9; stroke:none;" d="M311 247L312 248L311 247z"/>
<path style="fill:#bf4156; stroke:none;" d="M61 248L62 249L61 248z"/>
<path style="fill:#e79a3d; stroke:none;" d="M65 248L66 249L65 248M88 248L89 249L88 248M143 248L144 249L143 248z"/>
<path style="fill:#bf4156; stroke:none;" d="M156 248L157 249L156 248M160 248L161 249L160 248z"/>
<path style="fill:#8794a9; stroke:none;" d="M168.333 248.667L168.667 249.333L168.333 248.667M171 248L172 249L171 248M239 248L238 251L239 248M257.333 248.667L257.667 249.333L257.333 248.667M314 248L315 249L314 248M320.333 248.667L320.667 249.333L320.333 248.667M330 248L331 249L330 248M345 248L346 249L345 248z"/>
<path style="fill:#e79a3d; stroke:none;" d="M61 249L62 250L61 249z"/>
<path style="fill:#bf4156; stroke:none;" d="M65 249L66 250L65 249z"/>
<path style="fill:#8794a9; stroke:none;" d="M67 249L68 250L67 249z"/>
<path style="fill:#bf4156; stroke:none;" d="M80 249L81 250L80 249z"/>
<path style="fill:#e79a3d; stroke:none;" d="M89 249L90 250L89 249M117 249L118 250L117 249z"/>
<path style="fill:#8794a9; stroke:none;" d="M131.333 249.667L131.667 250.333L131.333 249.667z"/>
<path style="fill:#bf4156; stroke:none;" d="M135 249L136 250L135 249z"/>
<path style="fill:#e79a3d; stroke:none;" d="M144 249L145 250L144 249M156 249L157 250L156 249z"/>
<path style="fill:#8794a9; stroke:none;" d="M158 249L159 250L158 249z"/>
<path style="fill:#bf4156; stroke:none;" d="M165 249L166 250L165 249z"/>
<path style="fill:#8794a9; stroke:none;" d="M180 249L181 250L180 249M194 249L195 250L194 249M196 249L197 250L196 249M210 249L211 250L210 249M223 249L223 250L223 251L226 250L226 249L223 249z"/>
<path style="fill:#bf4156; stroke:none;" d="M224 249L225 250L224 249z"/>
<path style="fill:#8794a9; stroke:none;" d="M289 249L290 250L289 249M303 249L304 250L303 249M306.333 249.667L306.667 250.333L306.333 249.667M312.333 249.667L312.667 250.333L312.333 249.667M328 249L326 252L328 249z"/>
<path style="fill:#e79a3d; stroke:none;" d="M80 250L81 251L80 250z"/>
<path style="fill:#bf4156; stroke:none;" d="M89 250L90 251L89 250z"/>
<path style="fill:#e79a3d; stroke:none;" d="M128 250L129 251L128 250M135 250L136 251L135 250z"/>
<path style="fill:#bf4156; stroke:none;" d="M144 250L145 251L144 250M157 250L158 251L157 250z"/>
<path style="fill:#8794a9; stroke:none;" d="M181 250L182 251L181 250M186 250L187 251L186 250M193 250L194 251L193 250z"/>
<path style="fill:#bf4156; stroke:none;" d="M205 250L206 251L205 250z"/>
<path style="fill:#8794a9; stroke:none;" d="M231 250L232 251L231 250M251 250L252 251L251 250z"/>
<path style="fill:#bf4156; stroke:none;" d="M256 250L257 251L256 250M298 250L299 251L298 250z"/>
<path style="fill:#8794a9; stroke:none;" d="M331 250L332 251L331 250M336 250L337 251L336 250M344 250L345 251L344 250z"/>
<path style="fill:#bf4156; stroke:none;" d="M62 251L63 252L62 251z"/>
<path style="fill:#8794a9; stroke:none;" d="M66.3333 251.667L66.6667 252.333L66.3333 251.667z"/>
<path style="fill:#e79a3d; stroke:none;" d="M88 251L89 252L88 251z"/>
<path style="fill:#8794a9; stroke:none;" d="M91 251L92 252L91 251M104 251L105 252L104 251z"/>
<path style="fill:#e79a3d; stroke:none;" d="M118 251L119 252L118 251z"/>
<path style="fill:#bf4156; stroke:none;" d="M127 251L128 252L127 251z"/>
<path style="fill:#8794a9; stroke:none;" d="M130 251L131 252L130 251z"/>
<path style="fill:#e79a3d; stroke:none;" d="M143 251L144 252L143 251z"/>
<path style="fill:#8794a9; stroke:none;" d="M146 251L147 252L146 251z"/>
<path style="fill:#bf4156; stroke:none;" d="M158 251L159 252L158 251z"/>
<path style="fill:#8794a9; stroke:none;" d="M160 251L161 252L160 251M182 251L183 252L182 251M187 251L188 252L187 251M190 253L193 251L190 253M198 251L199 252L198 251M202 251L203 252L202 251M204 251L205 252L204 251M208 251L209 252L208 251M220 251L221 252L220 251z"/>
<path style="fill:#13131a; stroke:none;" d="M223 251L224 252L223 251z"/>
<path style="fill:#bf4156; stroke:none;" d="M227 251L228 252L227 251z"/>
<path style="fill:#8794a9; stroke:none;" d="M232 251L233 252L232 251M236.667 251.333L237.333 251.667L236.667 251.333M248 251L249 252L248 251z"/>
<path style="fill:#bf4156; stroke:none;" d="M260 251L261 252L260 251M266 251L267 252L266 251z"/>
<path style="fill:#8794a9; stroke:none;" d="M276 251L277 252L276 251M286 251L287 252L286 251M291 251L292 252L291 251M295 251L296 252L295 251M297 251L298 252L297 251M301 251L302 252L301 251M322 251L323 252L322 251M357 251L358 252L357 251M373 251L374 252L373 251z"/>
<path style="fill:#e79a3d; stroke:none;" d="M62 252L63 253L62 252M81 252L82 253L81 252z"/>
<path style="fill:#8794a9; stroke:none;" d="M106.333 252.667L106.667 253.333L106.333 252.667z"/>
<path style="fill:#bf4156; stroke:none;" d="M119 252L120 253L119 252z"/>
<path style="fill:#8794a9; stroke:none;" d="M129 252L130 253L129 252z"/>
<path style="fill:#e79a3d; stroke:none;" d="M136 252L137 253L136 252M159 252L160 253L159 252z"/>
<path style="fill:#8794a9; stroke:none;" d="M170.333 252.667L170.667 253.333L170.333 252.667M184 252L185 253L184 252M200 252L201 253L200 252M206 252L207 253L206 252M216 252L217 253L216 252M222 252L223 253L222 252M229 252L230 253L229 252M235 252L236 253L235 252M254 252L255 253L254 252M258 252L259 253L258 252M268 252L269 253L268 252M278 252L279 253L278 252M293 252L294 253L293 252M299 252L300 253L299 252M307 252L308 253L307 252M311 252L312 253L311 252M318.667 252.333L319.333 252.667L318.667 252.333M325 252L326 253L325 252M334.667 252.333L335.333 252.667L334.667 252.333M340.667 252.333L341.333 252.667L340.667 252.333M346 252L347 253L346 252M356 252L357 253L356 252M365 252L366 253L365 252z"/>
<path style="fill:#bf4156; stroke:none;" d="M83 253L84 254L83 253z"/>
<path style="fill:#e79a3d; stroke:none;" d="M102 253L103 254L102 253z"/>
<path style="fill:#bf4156; stroke:none;" d="M121 253L122 254L121 253M138 253L139 254L138 253z"/>
<path style="fill:#e79a3d; stroke:none;" d="M161 253L162 254L161 253z"/>
<path style="fill:#8794a9; stroke:none;" d="M241 258L242 259L241 258M248 258L249 259L248 258M239 259L240 260L239 259z"/>
</svg>
